#!OML:ASF C:\Vicon Data\Big\jianyuan-13\jianyuan\Session 1\Capture.male.ASF
:FULLY-SPECIFIED
:DEGREES
56
root -8.551725 17.755108 -19.686401 4.638178 14.411668 2.055661
lowerback -5.829557 0.707452 -2.918775 
upperback 2.776865 1.179714 -0.259257 
thorax 6.114222 0.458112 1.496542 
lowerneck -6.412652 -4.691979 2.610769 
upperneck 5.367160 -6.414131 -1.593084 
head 2.681596 -3.193262 -1.230085 
rclavicle 0.000000 0.000000 
rhumerus -33.624422 -15.704663 -80.127946 
rradius 37.715265 
rwrist 24.976664 
rhand -20.079344 -19.710101 
rfingers 0.000000 
rthumb 6.263190 -49.597479 
lclavicle 0.000000 0.000000 
lhumerus -35.605142 35.001006 70.783197 
lradius 25.802941 
lwrist -59.213425 
lhand -20.327550 1.096330 
lfingers 0.000000 
lthumb 6.023587 30.990692 
rfemur -20.352441 2.237209 22.616616 
rtibia 25.983090 
rfoot -14.189569 -9.461331 
rtoes -21.709236 
lfemur -64.168574 12.717801 -22.447163 
ltibia 104.569815 
lfoot -17.030198 -10.676473 
ltoes -40.687331 
57
root -8.554694 17.774339 -19.640477 4.657798 14.264519 2.149348
lowerback -5.645317 0.801721 -2.905416 
upperback 2.816065 1.298072 -0.289120 
thorax 6.045224 0.517409 1.467483 
lowerneck -6.358208 -4.720487 2.570722 
upperneck 5.297984 -6.446909 -1.591673 
head 2.648590 -3.210672 -1.220219 
rclavicle 0.000000 0.000000 
rhumerus -33.249129 -15.558589 -80.247536 
rradius 37.950895 
rwrist 24.708267 
rhand -20.189319 -19.693924 
rfingers 0.000000 
rthumb 6.157063 -49.584425 
lclavicle 0.000000 0.000000 
lhumerus -35.649677 34.561464 70.874712 
lradius 25.961116 
lwrist -58.869573 
lhand -20.233598 0.988518 
lfingers 0.000000 
lthumb 6.114308 30.880259 
rfemur -19.918527 2.323492 22.587259 
rtibia 25.456343 
rfoot -14.093357 -9.497566 
rtoes -21.613576 
lfemur -66.532775 12.626347 -22.960824 
ltibia 105.766933 
lfoot -17.453524 -10.095968 
ltoes -41.508650 
58
root -8.569220 17.799636 -19.589160 4.529025 14.160781 2.437782
lowerback -5.281387 0.875455 -3.219640 
upperback 2.906271 1.408002 -0.393503 
thorax 5.922748 0.559223 1.539568 
lowerneck -6.327116 -4.680681 2.785157 
upperneck 5.241220 -6.408251 -1.642579 
head 2.616370 -3.189225 -1.268926 
rclavicle 0.000000 0.000000 
rhumerus -32.894440 -15.633214 -80.388792 
rradius 38.151504 
rwrist 24.904626 
rhand -20.115952 -19.783092 
rfingers 0.000000 
rthumb 6.227895 -49.671536 
lclavicle 0.000000 0.000000 
lhumerus -35.556086 33.878987 71.025615 
lradius 26.082888 
lwrist -58.098930 
lhand -20.236936 1.020675 
lfingers 0.000000 
lthumb 6.111097 30.912532 
rfemur -19.191015 2.654649 22.370164 
rtibia 24.855175 
rfoot -14.084787 -9.823469 
rtoes -21.392461 
lfemur -68.437313 12.404820 -23.440081 
ltibia 106.870049 
lfoot -17.892382 -9.790018 
ltoes -41.908216 
59
root -8.572839 17.824035 -19.538248 4.424423 13.875668 2.750494
lowerback -4.948049 0.997756 -3.459434 
upperback 2.978211 1.574827 -0.472436 
thorax 5.795861 0.632332 1.601392 
lowerneck -6.281938 -4.694418 2.704065 
upperneck 5.212998 -6.424941 -1.534812 
head 2.603943 -3.195640 -1.218852 
rclavicle 0.000000 0.000000 
rhumerus -32.615193 -15.262502 -80.570262 
rradius 38.489019 
rwrist 24.316308 
rhand -20.212315 -19.907853 
rfingers 0.000000 
rthumb 6.134843 -49.798983 
lclavicle 0.000000 0.000000 
lhumerus -35.725816 33.635057 70.981893 
lradius 26.283926 
lwrist -57.906770 
lhand -20.094761 0.903657 
lfingers 0.000000 
lthumb 6.248323 30.791517 
rfemur -18.521846 2.710935 22.115247 
rtibia 24.254275 
rfoot -13.907737 -9.724879 
rtoes -21.604173 
lfemur -70.310758 12.333054 -24.033256 
ltibia 107.822475 
lfoot -18.062213 -9.786361 
ltoes -40.498545 
60
root -8.583611 17.845833 -19.482121 4.285429 13.700917 3.070035
lowerback -4.610214 1.071043 -3.820278 
upperback 3.076715 1.680849 -0.541592 
thorax 5.693752 0.668918 1.734198 
lowerneck -6.332857 -4.677723 2.761747 
upperneck 5.243576 -6.402203 -1.645921 
head 2.619010 -3.186740 -1.266072 
rclavicle 0.000000 0.000000 
rhumerus -32.253533 -15.396556 -80.631635 
rradius 38.663055 
rwrist 24.289062 
rhand -20.183012 -19.888715 
rfingers 0.000000 
rthumb 6.163149 -49.779084 
lclavicle 0.000000 0.000000 
lhumerus -35.882096 33.964211 70.606234 
lradius 26.135679 
lwrist -58.519454 
lhand -19.999584 0.867875 
lfingers 0.000000 
lthumb 6.340256 30.752987 
rfemur -17.794504 3.001514 21.868681 
rtibia 23.698656 
rfoot -13.862279 -9.905326 
rtoes -21.445471 
lfemur -71.930153 12.063585 -24.453766 
ltibia 108.646894 
lfoot -18.056887 -10.111215 
ltoes -40.179732 
61
root -8.590403 17.872869 -19.428033 4.248911 13.460811 3.320791
lowerback -4.364358 1.161465 -4.070685 
upperback 3.105818 1.805275 -0.606523 
thorax 5.571966 0.721683 1.811824 
lowerneck -6.403023 -4.643394 2.768381 
upperneck 5.360680 -6.365624 -1.555268 
head 2.675149 -3.164624 -1.242476 
rclavicle 0.000000 0.000000 
rhumerus -32.023676 -15.103673 -80.801801 
rradius 38.971641 
rwrist 23.957473 
rhand -20.092068 -19.995475 
rfingers 0.000000 
rthumb 6.250960 -49.883175 
lclavicle 0.000000 0.000000 
lhumerus -36.014379 34.334339 70.212793 
lradius 25.826847 
lwrist -59.029667 
lhand -19.910519 1.033938 
lfingers 0.000000 
lthumb 6.426223 30.916483 
rfemur -17.175169 3.207094 21.679593 
rtibia 23.047170 
rfoot -13.690497 -9.986429 
rtoes -21.277969 
lfemur -73.659810 11.826408 -24.790352 
ltibia 109.379028 
lfoot -17.967560 -10.532083 
ltoes -40.444001 
62
root -8.593359 17.895873 -19.369960 4.201429 13.177036 3.586099
lowerback -4.149232 1.246636 -4.259130 
upperback 3.136524 1.919877 -0.716614 
thorax 5.472643 0.772127 1.806947 
lowerneck -6.425700 -4.596127 2.905451 
upperneck 5.436635 -6.310195 -1.650279 
head 2.699342 -3.137209 -1.297157 
rclavicle 0.000000 0.000000 
rhumerus -31.838843 -14.821249 -81.053323 
rradius 39.179853 
rwrist 23.660645 
rhand -20.246252 -19.999901 
rfingers 0.000000 
rthumb 6.102048 -49.892032 
lclavicle 0.000000 0.000000 
lhumerus -36.370601 34.948462 69.537921 
lradius 25.620593 
lwrist -60.208348 
lhand -19.838975 0.751890 
lfingers 0.000000 
lthumb 6.495247 30.632302 
rfemur -16.563846 3.387982 21.471544 
rtibia 22.446597 
rfoot -13.505876 -9.974121 
rtoes -21.205019 
lfemur -75.183705 11.629449 -25.094728 
ltibia 109.996493 
lfoot -17.588321 -11.338184 
ltoes -39.796578 
63
root -8.599905 17.921454 -19.305822 3.986611 12.895650 3.930315
lowerback -3.796807 1.332670 -4.633458 
upperback 3.224564 2.034302 -0.799156 
thorax 5.348428 0.812775 1.930438 
lowerneck -6.481849 -4.540892 2.872422 
upperneck 5.554671 -6.242125 -1.561699 
head 2.755296 -3.100254 -1.265662 
rclavicle 0.000000 0.000000 
rhumerus -31.605323 -15.062195 -81.099372 
rradius 39.294248 
rwrist 23.844171 
rhand -20.153027 -19.880987 
rfingers 0.000000 
rthumb 6.192108 -49.770503 
lclavicle 0.000000 0.000000 
lhumerus -36.633296 35.390363 69.028286 
lradius 25.365365 
lwrist -60.703437 
lhand -19.910299 0.440232 
lfingers 0.000000 
lthumb 6.426388 30.322729 
rfemur -15.711002 3.768224 21.188487 
rtibia 21.875090 
rfoot -13.454703 -10.150873 
rtoes -21.033150 
lfemur -76.290663 11.508573 -25.388502 
ltibia 110.463036 
lfoot -17.129483 -12.266820 
ltoes -38.816921 
64
root -8.600772 17.936942 -19.245480 3.999655 12.653665 4.190898
lowerback -3.699202 1.380772 -4.812829 
upperback 3.264055 2.102705 -0.880979 
thorax 5.327167 0.838526 1.948340 
lowerneck -6.522968 -4.502027 2.732924 
upperneck 5.622008 -6.187640 -1.435776 
head 2.795276 -3.071173 -1.202502 
rclavicle 0.000000 0.000000 
rhumerus -31.407611 -14.829098 -81.289695 
rradius 39.553742 
rwrist 23.701430 
rhand -20.009466 -19.951820 
rfingers 0.000000 
rthumb 6.330638 -49.837223 
lclavicle 0.000000 0.000000 
lhumerus -36.875161 36.023531 68.455439 
lradius 25.091948 
lwrist -61.620782 
lhand -19.759567 0.597520 
lfingers 0.000000 
lthumb 6.571963 30.475518 
rfemur -15.200047 4.061001 20.961839 
rtibia 21.361319 
rfoot -13.341325 -10.260167 
rtoes -21.042591 
lfemur -77.579320 11.311348 -25.783437 
ltibia 110.918960 
lfoot -16.871724 -12.531135 
ltoes -39.326314 
